<?xml version="1.0" encoding="UTF-8" standalone="no"?>
<!DOCTYPE svg PUBLIC "-//W3C//DTD SVG 1.1//EN"
 "http://www.w3.org/Graphics/SVG/1.1/DTD/svg11.dtd">
<!-- Generated by graphviz version 5.0.0 (20220707.1540)
 -->
<!-- Title: dependencies Pages: 1 -->
<svg width="1243pt" height="247pt"
 viewBox="0.00 0.00 1243.00 246.80" xmlns="http://www.w3.org/2000/svg" xmlns:xlink="http://www.w3.org/1999/xlink">
<g id="graph0" class="graph" transform="scale(1 1) rotate(0) translate(4 242.8)">
<title>dependencies</title>
<polygon fill="white" stroke="transparent" points="-4,4 -4,-242.8 1239,-242.8 1239,4 -4,4"/>
<text text-anchor="middle" x="617.5" y="-8.2" font-family="sans-serif" font-size="14.00">dependencies</text>
<g id="clust1" class="cluster">
<title>cluster_AppModule</title>
<polygon fill="none" stroke="black" stroke-dasharray="1,5" points="8,-32.8 8,-230.8 1227,-230.8 1227,-32.8 8,-32.8"/>
</g>
<g id="clust5" class="cluster">
<title>cluster_AppModule_imports</title>
<polygon fill="none" stroke="black" points="296,-40.8 296,-92.8 1219,-92.8 1219,-40.8 296,-40.8"/>
</g>
<g id="clust2" class="cluster">
<title>cluster_AppModule_declarations</title>
<polygon fill="none" stroke="black" points="16,-40.8 16,-92.8 288,-92.8 288,-40.8 16,-40.8"/>
</g>
<g id="clust7" class="cluster">
<title>cluster_AppModule_bootstrap</title>
<polygon fill="none" stroke="black" points="499,-170.8 499,-222.8 623,-222.8 623,-170.8 499,-170.8"/>
</g>
<!-- AppComponent -->
<g id="node1" class="node">
<title>AppComponent</title>
<polygon fill="#ffffb3" stroke="black" points="279.94,-84.8 174.06,-84.8 174.06,-48.8 279.94,-48.8 279.94,-84.8"/>
<text text-anchor="middle" x="227" y="-62.6" font-family="Times,serif" font-size="14.00">AppComponent</text>
</g>
<!-- AppModule -->
<g id="node3" class="node">
<title>AppModule</title>
<polygon fill="#8dd3c7" stroke="black" points="602.66,-149.8 599.66,-153.8 578.66,-153.8 575.66,-149.8 519.34,-149.8 519.34,-113.8 602.66,-113.8 602.66,-149.8"/>
<text text-anchor="middle" x="561" y="-127.6" font-family="Times,serif" font-size="14.00">AppModule</text>
</g>
<!-- AppComponent&#45;&gt;AppModule -->
<g id="edge1" class="edge">
<title>AppComponent&#45;&gt;AppModule</title>
<path fill="none" stroke="black" d="M227,-84.82C227,-102.17 227,-125.8 227,-125.8 227,-125.8 509.04,-125.8 509.04,-125.8"/>
<polygon fill="black" stroke="black" points="509.04,-129.3 519.04,-125.8 509.04,-122.3 509.04,-129.3"/>
</g>
<!-- TodoListComponent -->
<g id="node2" class="node">
<title>TodoListComponent</title>
<polygon fill="#ffffb3" stroke="black" points="156.16,-84.8 23.84,-84.8 23.84,-48.8 156.16,-48.8 156.16,-84.8"/>
<text text-anchor="middle" x="90" y="-62.6" font-family="Times,serif" font-size="14.00">TodoListComponent</text>
</g>
<!-- TodoListComponent&#45;&gt;AppModule -->
<g id="edge2" class="edge">
<title>TodoListComponent&#45;&gt;AppModule</title>
<path fill="none" stroke="black" d="M90,-85.08C90,-106.12 90,-137.8 90,-137.8 90,-137.8 509.2,-137.8 509.2,-137.8"/>
<polygon fill="black" stroke="black" points="509.2,-141.3 519.2,-137.8 509.2,-134.3 509.2,-141.3"/>
</g>
<!-- AppComponent  -->
<g id="node8" class="node">
<title>AppComponent </title>
<polygon fill="#80b1d3" stroke="black" points="615.44,-214.8 506.56,-214.8 506.56,-178.8 615.44,-178.8 615.44,-214.8"/>
<text text-anchor="middle" x="561" y="-192.6" font-family="Times,serif" font-size="14.00">AppComponent </text>
</g>
<!-- AppModule&#45;&gt;AppComponent  -->
<g id="edge7" class="edge">
<title>AppModule&#45;&gt;AppComponent </title>
<path fill="none" stroke="black" stroke-dasharray="1,5" d="M561,-149.91C561,-149.91 561,-168.79 561,-168.79"/>
<polygon fill="black" stroke="black" points="557.5,-168.79 561,-178.79 564.5,-168.79 557.5,-168.79"/>
</g>
<!-- AppRoutingModule -->
<g id="node4" class="node">
<title>AppRoutingModule</title>
<polygon fill="#8dd3c7" stroke="black" points="1211.28,-84.8 1208.28,-88.8 1187.28,-88.8 1184.28,-84.8 1082.72,-84.8 1082.72,-48.8 1211.28,-48.8 1211.28,-84.8"/>
<text text-anchor="middle" x="1147" y="-62.6" font-family="Times,serif" font-size="14.00">AppRoutingModule</text>
</g>
<!-- AppRoutingModule&#45;&gt;AppModule -->
<g id="edge3" class="edge">
<title>AppRoutingModule&#45;&gt;AppModule</title>
<path fill="none" stroke="black" d="M1147,-85.08C1147,-106.12 1147,-137.8 1147,-137.8 1147,-137.8 612.67,-137.8 612.67,-137.8"/>
<polygon fill="black" stroke="black" points="612.67,-134.3 602.67,-137.8 612.67,-141.3 612.67,-134.3"/>
</g>
<!-- provideAuth(() =&gt; getAuth()) -->
<g id="node5" class="node">
<title>provideAuth(() =&gt; getAuth())</title>
<polygon fill="#8dd3c7" stroke="black" points="1064.13,-84.8 1061.13,-88.8 1040.13,-88.8 1037.13,-84.8 881.87,-84.8 881.87,-48.8 1064.13,-48.8 1064.13,-84.8"/>
<text text-anchor="middle" x="973" y="-62.6" font-family="Times,serif" font-size="14.00">provideAuth(() =&gt; getAuth())</text>
</g>
<!-- provideAuth(() =&gt; getAuth())&#45;&gt;AppModule -->
<g id="edge4" class="edge">
<title>provideAuth(() =&gt; getAuth())&#45;&gt;AppModule</title>
<path fill="none" stroke="black" d="M973,-84.82C973,-102.17 973,-125.8 973,-125.8 973,-125.8 612.77,-125.8 612.77,-125.8"/>
<polygon fill="black" stroke="black" points="612.77,-122.3 602.77,-125.8 612.77,-129.3 612.77,-122.3"/>
</g>
<!-- provideFirebaseApp(() =&gt; initializeApp(environment -->
<g id="node6" class="node">
<title>provideFirebaseApp(() =&gt; initializeApp(environment</title>
<polygon fill="#8dd3c7" stroke="black" points="863.59,-84.8 860.59,-88.8 839.59,-88.8 836.59,-84.8 548.41,-84.8 548.41,-48.8 863.59,-48.8 863.59,-84.8"/>
<text text-anchor="middle" x="706" y="-62.6" font-family="Times,serif" font-size="14.00">provideFirebaseApp(() =&gt; initializeApp(environment</text>
</g>
<!-- provideFirebaseApp(() =&gt; initializeApp(environment&#45;&gt;AppModule -->
<g id="edge5" class="edge">
<title>provideFirebaseApp(() =&gt; initializeApp(environment&#45;&gt;AppModule</title>
<path fill="none" stroke="black" d="M575.52,-84.91C575.52,-84.91 575.52,-103.79 575.52,-103.79"/>
<polygon fill="black" stroke="black" points="572.02,-103.79 575.52,-113.79 579.02,-103.79 572.02,-103.79"/>
</g>
<!-- provideFirestore(() =&gt; getFirestore()) -->
<g id="node7" class="node">
<title>provideFirestore(() =&gt; getFirestore())</title>
<polygon fill="#8dd3c7" stroke="black" points="530.16,-84.8 527.16,-88.8 506.16,-88.8 503.16,-84.8 303.84,-84.8 303.84,-48.8 530.16,-48.8 530.16,-84.8"/>
<text text-anchor="middle" x="417" y="-62.6" font-family="Times,serif" font-size="14.00">provideFirestore(() =&gt; getFirestore())</text>
</g>
<!-- provideFirestore(() =&gt; getFirestore())&#45;&gt;AppModule -->
<g id="edge6" class="edge">
<title>provideFirestore(() =&gt; getFirestore())&#45;&gt;AppModule</title>
<path fill="none" stroke="black" d="M524.63,-84.91C524.63,-84.91 524.63,-103.79 524.63,-103.79"/>
<polygon fill="black" stroke="black" points="521.13,-103.79 524.63,-113.79 528.13,-103.79 521.13,-103.79"/>
</g>
</g>
</svg>
