<?xml version="1.0" encoding="UTF-8" standalone="no"?>
<!DOCTYPE svg PUBLIC "-//W3C//DTD SVG 1.1//EN"
 "http://www.w3.org/Graphics/SVG/1.1/DTD/svg11.dtd">
<!-- Generated by graphviz version 5.0.0 (20220707.1540)
 -->
<!-- Title: dependencies Pages: 1 -->
<svg width="1243pt" height="247pt"
 viewBox="0.00 0.00 1243.00 246.80" xmlns="http://www.w3.org/2000/svg" xmlns:xlink="http://www.w3.org/1999/xlink">
<g id="graph0" class="graph" transform="scale(1 1) rotate(0) translate(4 242.8)">
<title>dependencies</title>
<polygon fill="white" stroke="transparent" points="-4,4 -4,-242.8 1239,-242.8 1239,4 -4,4"/>
<text text-anchor="middle" x="617.5" y="-8.2" font-family="sans-serif" font-size="14.00">dependencies</text>
<g id="clust1" class="cluster">
<title>cluster_AppModule</title>
<polygon fill="none" stroke="black" stroke-dasharray="1,5" points="8,-32.8 8,-230.8 1227,-230.8 1227,-32.8 8,-32.8"/>
</g>
<g id="clust2" class="cluster">
<title>cluster_AppModule_declarations</title>
<polygon fill="none" stroke="black" points="947,-40.8 947,-92.8 1219,-92.8 1219,-40.8 947,-40.8"/>
</g>
<g id="clust5" class="cluster">
<title>cluster_AppModule_imports</title>
<polygon fill="none" stroke="black" points="16,-40.8 16,-92.8 939,-92.8 939,-40.8 16,-40.8"/>
</g>
<g id="clust7" class="cluster">
<title>cluster_AppModule_bootstrap</title>
<polygon fill="none" stroke="black" points="718,-170.8 718,-222.8 842,-222.8 842,-170.8 718,-170.8"/>
</g>
<!-- AppComponent -->
<g id="node1" class="node">
<title>AppComponent</title>
<polygon fill="#ffffb3" stroke="black" points="1210.94,-84.8 1105.06,-84.8 1105.06,-48.8 1210.94,-48.8 1210.94,-84.8"/>
<text text-anchor="middle" x="1158" y="-62.6" font-family="Times,serif" font-size="14.00">AppComponent</text>
</g>
<!-- AppModule -->
<g id="node3" class="node">
<title>AppModule</title>
<polygon fill="#8dd3c7" stroke="black" points="821.66,-149.8 818.66,-153.8 797.66,-153.8 794.66,-149.8 738.34,-149.8 738.34,-113.8 821.66,-113.8 821.66,-149.8"/>
<text text-anchor="middle" x="780" y="-127.6" font-family="Times,serif" font-size="14.00">AppModule</text>
</g>
<!-- AppComponent&#45;&gt;AppModule -->
<g id="edge1" class="edge">
<title>AppComponent&#45;&gt;AppModule</title>
<path fill="none" stroke="black" d="M1158,-85.08C1158,-106.12 1158,-137.8 1158,-137.8 1158,-137.8 831.9,-137.8 831.9,-137.8"/>
<polygon fill="black" stroke="black" points="831.9,-134.3 821.9,-137.8 831.9,-141.3 831.9,-134.3"/>
</g>
<!-- TodoListComponent -->
<g id="node2" class="node">
<title>TodoListComponent</title>
<polygon fill="#ffffb3" stroke="black" points="1087.16,-84.8 954.84,-84.8 954.84,-48.8 1087.16,-48.8 1087.16,-84.8"/>
<text text-anchor="middle" x="1021" y="-62.6" font-family="Times,serif" font-size="14.00">TodoListComponent</text>
</g>
<!-- TodoListComponent&#45;&gt;AppModule -->
<g id="edge2" class="edge">
<title>TodoListComponent&#45;&gt;AppModule</title>
<path fill="none" stroke="black" d="M1021,-84.82C1021,-102.17 1021,-125.8 1021,-125.8 1021,-125.8 831.7,-125.8 831.7,-125.8"/>
<polygon fill="black" stroke="black" points="831.7,-122.3 821.7,-125.8 831.7,-129.3 831.7,-122.3"/>
</g>
<!-- AppComponent  -->
<g id="node8" class="node">
<title>AppComponent </title>
<polygon fill="#80b1d3" stroke="black" points="834.44,-214.8 725.56,-214.8 725.56,-178.8 834.44,-178.8 834.44,-214.8"/>
<text text-anchor="middle" x="780" y="-192.6" font-family="Times,serif" font-size="14.00">AppComponent </text>
</g>
<!-- AppModule&#45;&gt;AppComponent  -->
<g id="edge7" class="edge">
<title>AppModule&#45;&gt;AppComponent </title>
<path fill="none" stroke="black" stroke-dasharray="1,5" d="M780,-149.91C780,-149.91 780,-168.79 780,-168.79"/>
<polygon fill="black" stroke="black" points="776.5,-168.79 780,-178.79 783.5,-168.79 776.5,-168.79"/>
</g>
<!-- AppRoutingModule -->
<g id="node4" class="node">
<title>AppRoutingModule</title>
<polygon fill="#8dd3c7" stroke="black" points="931.28,-84.8 928.28,-88.8 907.28,-88.8 904.28,-84.8 802.72,-84.8 802.72,-48.8 931.28,-48.8 931.28,-84.8"/>
<text text-anchor="middle" x="867" y="-62.6" font-family="Times,serif" font-size="14.00">AppRoutingModule</text>
</g>
<!-- AppRoutingModule&#45;&gt;AppModule -->
<g id="edge3" class="edge">
<title>AppRoutingModule&#45;&gt;AppModule</title>
<path fill="none" stroke="black" d="M812.22,-84.91C812.22,-84.91 812.22,-103.79 812.22,-103.79"/>
<polygon fill="black" stroke="black" points="808.72,-103.79 812.22,-113.79 815.72,-103.79 808.72,-103.79"/>
</g>
<!-- provideAuth(() =&gt; getAuth()) -->
<g id="node5" class="node">
<title>provideAuth(() =&gt; getAuth())</title>
<polygon fill="#8dd3c7" stroke="black" points="784.13,-84.8 781.13,-88.8 760.13,-88.8 757.13,-84.8 601.87,-84.8 601.87,-48.8 784.13,-48.8 784.13,-84.8"/>
<text text-anchor="middle" x="693" y="-62.6" font-family="Times,serif" font-size="14.00">provideAuth(() =&gt; getAuth())</text>
</g>
<!-- provideAuth(() =&gt; getAuth())&#45;&gt;AppModule -->
<g id="edge4" class="edge">
<title>provideAuth(() =&gt; getAuth())&#45;&gt;AppModule</title>
<path fill="none" stroke="black" d="M761.24,-84.91C761.24,-84.91 761.24,-103.79 761.24,-103.79"/>
<polygon fill="black" stroke="black" points="757.74,-103.79 761.24,-113.79 764.74,-103.79 757.74,-103.79"/>
</g>
<!-- provideFirebaseApp(() =&gt; initializeApp(environment -->
<g id="node6" class="node">
<title>provideFirebaseApp(() =&gt; initializeApp(environment</title>
<polygon fill="#8dd3c7" stroke="black" points="583.59,-84.8 580.59,-88.8 559.59,-88.8 556.59,-84.8 268.41,-84.8 268.41,-48.8 583.59,-48.8 583.59,-84.8"/>
<text text-anchor="middle" x="426" y="-62.6" font-family="Times,serif" font-size="14.00">provideFirebaseApp(() =&gt; initializeApp(environment</text>
</g>
<!-- provideFirebaseApp(() =&gt; initializeApp(environment&#45;&gt;AppModule -->
<g id="edge5" class="edge">
<title>provideFirebaseApp(() =&gt; initializeApp(environment&#45;&gt;AppModule</title>
<path fill="none" stroke="black" d="M426,-84.82C426,-102.17 426,-125.8 426,-125.8 426,-125.8 728,-125.8 728,-125.8"/>
<polygon fill="black" stroke="black" points="728,-129.3 738,-125.8 728,-122.3 728,-129.3"/>
</g>
<!-- provideFirestore(() =&gt; getFirestore()) -->
<g id="node7" class="node">
<title>provideFirestore(() =&gt; getFirestore())</title>
<polygon fill="#8dd3c7" stroke="black" points="250.16,-84.8 247.16,-88.8 226.16,-88.8 223.16,-84.8 23.84,-84.8 23.84,-48.8 250.16,-48.8 250.16,-84.8"/>
<text text-anchor="middle" x="137" y="-62.6" font-family="Times,serif" font-size="14.00">provideFirestore(() =&gt; getFirestore())</text>
</g>
<!-- provideFirestore(() =&gt; getFirestore())&#45;&gt;AppModule -->
<g id="edge6" class="edge">
<title>provideFirestore(() =&gt; getFirestore())&#45;&gt;AppModule</title>
<path fill="none" stroke="black" d="M137,-85.08C137,-106.12 137,-137.8 137,-137.8 137,-137.8 728.31,-137.8 728.31,-137.8"/>
<polygon fill="black" stroke="black" points="728.31,-141.3 738.31,-137.8 728.31,-134.3 728.31,-141.3"/>
</g>
</g>
</svg>
